<?xml version="1.0" encoding="utf-8"?>
<!-- Generator: Adobe Illustrator 19.0.0, SVG Export Plug-In . SVG Version: 6.00 Build 0)  -->
<svg version="1.1" id="Layer_1" xmlns="http://www.w3.org/2000/svg" xmlns:xlink="http://www.w3.org/1999/xlink" x="0px" y="0px"
	 viewBox="0 0 612 792" style="enable-background:new 0 0 612 792;" xml:space="preserve">
<style type="text/css">
	.st0{fill:#FFFFFF;}
	.st1{fill:url(#XMLID_2_);}
	.st2{fill:#50B848;}
</style>
<g id="XMLID_9124_">
	<path id="XMLID_9161_" class="st0" d="M276,368.4c0.7,3.2,1.1,6.5,0.7,9.9s-1.5,6.8-3.5,9.5c-0.7,0.9-1.5,1.8-2.3,2.7
		c-1.2,1.2-2.4,2.3-3.8,3.1c-1.4,0.8-2.9,1.2-4.3,0.9c-2.2-0.5-4.7-2.4-6.1-4.4c-0.6-0.9-1.2-1.8-1.4-2.9c-0.2-1,0-2.1,0.2-3.2
		c0.3-2.5,0.9-5.1,1.7-7.5c0.7-2,1.9-6,4.7-10.1c0.9-1.3,3.1-2.7,4.4-3.3c1.1-0.4,2.1-0.5,3.2-0.6c2.2-0.2,3.2,1.7,4.6,3.1
		c0.5,0.5,1.1,0.8,1.4,1.4C275.8,367.3,275.9,367.8,276,368.4z M273.4,372.6l-0.1-2.9c0-1.6-0.3-3.1-2.3-1.8
		c-2.4,1.7-4.5,6.2-5.6,9.3c-1.2,3.2-2.1,5.7-2.9,9.1c-0.6,2.5-0.2,3.8,0.3,4.9c0.1,0.2,0.4,0.4,0.6,0.5c0.1,0.1,0.2,0.1,0.3,0
		c1.1-0.3,2.2-0.6,3-1.4c1-1.1,1.9-2,2.8-3.4l1.6-2.6c0.7-1,1.1-2.2,1.4-3.3c0.4-1.6,0.7-3.2,0.8-4.8
		C273.4,375,273.4,373.8,273.4,372.6z"/>
	<g id="XMLID_9150_">
		<path id="XMLID_9154_" class="st0" d="M236,356l0.5,0.3l1.6-0.3c0.8-0.1,1.6-0.2,2.5-0.2c8.4,0,12,8.8,12,15.1
			c0,11.3-6.9,21.5-13.5,21.5c-1.9,0-4.3-0.3-6.1-1.1c-0.2,1.1-1.1,1.6-2,1.6c-2.6,0-4.5-1.6-4.5-4.1c0.5-7.1,2.1-13.3,3.6-19.6
			c-1-0.6-1.8-1.6-1.8-2.9c0-2.6,0.9-4.8,2.6-6.6l1.2-1.2l0.2-1.4c0-1,1-1.2,1.8-1.2C234.8,355.8,235.5,355.8,236,356z M242.7,361.7
			c-1.2-0.3-2.5-0.1-3.8,0.7c-1,5-2.3,10.2-3.5,14.7c-0.9,3.4-1.6,6.5-2,9.1c0.8,0.5,7.2,5,11.7-10.8
			C247,367.4,244.4,362,242.7,361.7z"/>
	</g>
	<path id="XMLID_9145_" class="st0" d="M317.7,369.1c-1.4,7.4-4.8,19-7.1,26c-0.3,1-0.8,2.1-1.7,2.5c-0.8,0.4-1.6,0.1-2.3-0.4
		c-0.7-0.5-1.2-1.1-1.6-1.9c-0.6-1.4,1.3-8,1.5-9.6c0.4-2.3,0.9-4.6,1.5-6.9l-8.3,1.5l-1.6,4.6c-0.7,1.8-2.4,5.6-3.1,7.3
		c-0.3,0.7-0.7,1.5-1.2,2c-0.6,0.6-1.3,0.8-1.9,0.4c-0.4-0.3-0.7-0.9-0.8-1.5c-0.5-2.3,0.9-6.9,1.5-9.3c1.1-5,3.5-12.9,4.9-17.8
		c0.4-1.3,0.8-2.7,1.6-3.8c0.8-1.1,2.1-1.8,3.2-1.3l-0.2-0.1c0.9,0.2,1.6,1.2,1.8,2.3c0.2,1.1-0.1,2.3-0.3,3.4
		c-0.6,2.8-1.6,6.6-2.7,10.2c2.8-0.2,5.6-0.9,8.3-1.8c1.3-4.4,2.8-8.8,4.4-13l-0.1,0.3c0.5-0.9,1.7-1.3,2.7-1.1
		c1.7,0.4,1.9,2.3,1.9,4.3C318,366.6,318,368.1,317.7,369.1z"/>
	<path id="XMLID_9136_" class="st0" d="M341.7,366c0.7,3.2,1.1,6.5,0.7,9.9c-0.4,3.4-1.5,13.9-3.5,16.6c-0.7,0.9-1.3,1.7-2.1,2.6
		c-1.2,1.2-2.6,2.4-4,3.2c-1.4,0.8-2.9,1.2-4.3,0.9c-2.2-0.5-4.7-2.4-6.1-4.4c-0.6-0.9-1.2-1.8-1.4-2.9c-0.2-1,0-2.1,0.2-3.2
		c0.3-2.5,0.9-12.2,1.7-14.6c0.7-2,1.9-6,4.7-10.1c0.9-1.3,3.1-2.7,4.4-3.3c1.1-0.4,2.1-0.5,3.2-0.6c2.2-0.2,3.2,1.7,4.6,3.1
		c0.5,0.5,1.1,0.8,1.4,1.4C341.4,365,341.6,365.5,341.7,366z M339,370.2l-0.1-2.9c0-1.6-0.3-3.1-2.3-1.8c-2.4,1.7-4.5,6.2-5.6,9.3
		c-1.2,3.2-2.1,12.8-2.9,16.1c-0.6,2.5-0.2,3.8,0.3,4.9c0.1,0.2,0.8,0.6,0.9,0.5c1.1-0.3,2.2-0.6,3-1.4c1-1.1,1.9-2,2.8-3.4l1.6-2.6
		c0.9-2,2.1-13.5,2.2-15.2C339.1,372.6,339,371.4,339,370.2z"/>
	<path id="XMLID_9134_" class="st0" d="M360.9,365.5c0.3,0.9,0,1.8-0.2,2.6c-2.1,6.9-5.2,20.3-7.2,27.2c-0.2,0.7-0.4,1.3-0.8,1.9
		c-0.9,1.2-2.8,1.6-4.4,1.2c-0.3-0.1-0.6-0.2-0.8-0.4c-0.1-0.2-0.1-0.4-0.2-0.6c-0.3-3.1,1.4-12.4,2.1-15.4c1.1-5.1,2.3-10,4.2-14.9
		c0.4-1,0.9-2.1,1.7-2.8c-3.1,0.3-6.1,0.7-9.2,1.1c-0.6-0.2-0.9-1.2-0.5-1.8c0.4-0.7,1.2-1.1,2-1.3c7-2.2,14.5-2.8,21.6-1.9
		c0.3,0.1,0.6,0.1,0.8,0.2c0.6,0.4,0.4,1.6-0.2,2.1c-0.6,0.5-1.4,0.6-2.2,0.6c-2.8,0.2-5.7,0.3-8.5,0.6c0.1,0,0.1,0,0.1,0.1
		c0.1,0.1,0.2,0.2,0.2,0.2C360,364.3,360.7,364.9,360.9,365.5z"/>
	<path id="XMLID_9130_" class="st0" d="M389.2,365.3c-0.2,0.3-1,0.4-1.3,0.6c-0.6,0.3-2.3-0.7-3.1-0.7c-2.9,0-6.8,2.4-8.7,5.7
		c-0.6,1-0.6,2-0.7,2.7c0,0.5,0.2,0.9,0.3,1.4c0.9,2.1,3.6,5,5,6.7c0.7,0.8,1.3,1.7,1.7,2.7c0.3,1,0.4,2.2-0.2,3.2
		c-0.6,1.1-1.7,1.7-2.7,2.2c-2.3,1.2-4.8,2.4-7.3,2.4c-2.7-0.1-5.3-1.6-6.6-3.9c-0.1-0.2-0.2-0.5-0.2-0.8c0.1-0.3,0.5-0.5,0.8-0.6
		c1.5-0.4,3-0.2,4.5-0.5c1.4-0.2,2.7-0.9,3.8-1.9c0.2-0.2,0.4-0.5,0.5-0.8c0.1-0.3-0.1-0.7-0.2-1c-0.7-1.3-1.4-2.7-2.3-3.8
		c-0.7-0.9-1.6-1.6-2.3-2.4c-0.8-0.8-1.4-1.7-2.1-2.7c-0.3-0.4-0.6-0.9-0.7-1.6c-0.1-0.7,0.1-1.4,0.3-2.1c1.2-3.3,3.2-6.6,6.3-8.2
		c0.8-0.4,1.7-0.8,2.6-1.1c1.3-0.4,2.6-0.7,4-0.8c2.7-0.1,5.4,0.9,7.4,2.7C388.6,363.2,390,364.6,389.2,365.3z"/>
	<linearGradient id="XMLID_2_" gradientUnits="userSpaceOnUse" x1="228.4719" y1="430.8011" x2="395.1386" y2="376.1344">
		<stop  offset="0" style="stop-color:#C13245"/>
		<stop  offset="0.273" style="stop-color:#C53745"/>
		<stop  offset="0.6041" style="stop-color:#D34744"/>
		<stop  offset="0.964" style="stop-color:#ED6143"/>
		<stop  offset="0.9946" style="stop-color:#F26443"/>
	</linearGradient>
	<path id="XMLID_9129_" class="st1" d="M392.3,373.4c-3.2,0,21.1,52-132.7,27.3c-10.1-1.6-18.1-1.5-24.4,0c-3.6,0.4-6.8,1.9-9.4,4.2
		c0,0-0.1,0-0.1,0.1c0,0,0,0.1-0.1,0.1c-3.7,3.3-6.1,8.1-6.1,13.4c0,9.2,6.9,16.7,15.8,17.7c3.1,0.7,6.5,0.1,10.1-1.7
		c0.1,0,0.1-0.1,0.2-0.1c0.7-0.4,1.4-0.8,2-1.2c5.1-3.4,10.2-8.4,14.9-10.3c19.6-7.9,92.3,7.8,123.7-20
		C400.1,390.6,396.7,373.4,392.3,373.4z"/>
	<path id="XMLID_9126_" class="st2" d="M203.2,426.5c-2.9,0.7-2.8,4.9-1.2,6.8c1,1.2,2.6,1.6,4,1.6c3.4,0.2,6.2-2.4,8.5-3.8
		c0,0,0.4-0.2,0.7-0.4c0.4-0.2,1-0.1,1.5,0.3c0.6,0.5,1.4,1.2,1.7,1.5c1.7,1.5,3.7,3,6,3.3c2,0.2,4.4-0.4,5.8-0.8
		c0.6-0.2,0.6-0.6,0.2-1c-1.5-1.2-4.5-3.9-7-8.6c-0.4-0.7-0.7-1.5-1.1-2.3c-1.3-3.2-1.2-8-1.2-10.1c0-0.6-0.4-0.9-0.9-0.5
		c-0.8,0.5-2,1.3-2.4,1.9c-2.4,2.9-3.8,10.5-3.8,10.5c-0.2,1-2.6,1.9-5.3,1.7C206.7,426.5,204.9,426,203.2,426.5L203.2,426.5z
		 M199.6,428.6"/>
	<path id="XMLID_9125_" class="st0" d="M237.3,408.6c-3.8,2-5.2,5-7.7,5.3c-2.6,0.4-3.8-2.3-2.7-4.1c0.7-1.3,1.8-2.2,3-2.8
		c2.7-1.5,5-2.5,7.9-2.7c1.6-0.1,3,0,4.4,0.1c1.2,0.1,1.3,1.7,0.2,2.1C240.7,407.1,238.8,407.8,237.3,408.6z"/>
</g>
</svg>
